{
  "accessors": [
    {
      "bufferView": 2,
      "componentType": 5126,
      "count": 4140,
      "max": [
        2500.0,
        1250.0,
        200.0
      ],
      "min": [
        -2500.0,
        -1250.0,
        -385.36370849609375
      ],
      "type": "VEC3"
    },
    {
      "bufferView": 2,
      "byteOffset": 49680,
      "componentType": 5126,
      "count": 4140,
      "max": [
        1.0,
        1.0,
        1.0
      ],
      "min": [
        -1.0,
        -1.0,
        -1.0
      ],
      "type": "VEC3"
    },
    {
      "bufferView": 1,
      "componentType": 5126,
      "count": 4140,
      "max": [
        1250.0,
        85.5807113647461
      ],
      "min": [
        -1250.0,
        -162.82327270507813
      ],
      "type": "VEC2"
    },
    {
      "bufferView": 0,
      "componentType": 5125,
      "count": 12846,
      "type": "SCALAR"
    },
    {
      "bufferView": 2,
      "byteOffset": 99360,
      "componentType": 5126,
      "count": 36,
      "max": [
        2460.0,
        1210.0,
        150.0
      ],
      "min": [
        -2460.0,
        -1210.0,
        150.0
      ],
      "type": "VEC3"
    },
    {
      "bufferView": 2,
      "byteOffset": 99792,
      "componentType": 5126,
      "count": 36,
      "max": [
        0.0,
        0.0,
        1.0
      ],
      "min": [
        0.0,
        0.0,
        1.0
      ],
      "type": "VEC3"
    },
    {
      "bufferView": 1,
      "byteOffset": 33120,
      "componentType": 5126,
      "count": 36,
      "max": [
        4.4900102615356445,
        4.530011177062988
      ],
      "min": [
        1.3381273333834542e-07,
        0.0
      ],
      "type": "VEC2"
    },
    {
      "bufferView": 0,
      "byteOffset": 51384,
      "componentType": 5125,
      "count": 54,
      "type": "SCALAR"
    },
    {
      "bufferView": 2,
      "byteOffset": 100224,
      "componentType": 5126,
      "count": 359,
      "max": [
        100.0,
        99.80268096923828,
        0.0
      ],
      "min": [
        -100.0,
        -99.80267333984375,
        -2895.739013671875
      ],
      "type": "VEC3"
    },
    {
      "bufferView": 2,
      "byteOffset": 104532,
      "componentType": 5126,
      "count": 359,
      "max": [
        1.0,
        0.9980268478393555,
        1.0
      ],
      "min": [
        -1.0,
        -0.9980267882347107,
        -1.0
      ],
      "type": "VEC3"
    },
    {
      "bufferView": 1,
      "byteOffset": 33408,
      "componentType": 5126,
      "count": 359,
      "max": [
        0.9899997711181641,
        1.0
      ],
      "min": [
        -0.010000228881835938,
        0.0
      ],
      "type": "VEC2"
    },
    {
      "bufferView": 0,
      "byteOffset": 51600,
      "componentType": 5125,
      "count": 1500,
      "type": "SCALAR"
    },
    {
      "bufferView": 2,
      "byteOffset": 108840,
      "componentType": 5126,
      "count": 24,
      "max": [
        250.0,
        250.0,
        500.0
      ],
      "min": [
        -250.0,
        -250.0,
        0.0
      ],
      "type": "VEC3"
    },
    {
      "bufferView": 2,
      "byteOffset": 109128,
      "componentType": 5126,
      "count": 24,
      "max": [
        1.0,
        1.0,
        1.0
      ],
      "min": [
        -1.0,
        -1.0,
        -1.0
      ],
      "type": "VEC3"
    },
    {
      "bufferView": 1,
      "byteOffset": 36280,
      "componentType": 5126,
      "count": 24,
      "max": [
        1.0,
        1.0
      ],
      "min": [
        0.0,
        0.0
      ],
      "type": "VEC2"
    },
    {
      "bufferView": 0,
      "byteOffset": 57600,
      "componentType": 5125,
      "count": 36,
      "type": "SCALAR"
    },
    {
      "bufferView": 3,
      "componentType": 5126,
      "count": 601,
      "max": [
        20.0
      ],
      "min": [
        0.0
      ],
      "type": "SCALAR"
    },
    {
      "bufferView": 4,
      "componentType": 5126,
      "count": 601,
      "max": [
        0.9238795042037964,
        0.0,
        0.0,
        0.9238795638084412
      ],
      "min": [
        -0.8656271696090698,
        0.0,
        0.0,
        -0.49808162450790405
      ],
      "type": "VEC4"
    }
  ],
  "animations": [
    {
      "channels": [
        {
          "sampler": 0,
          "target": {
            "node": 4,
            "path": "rotation"
          }
        }
      ],
      "name": "Take 001",
      "samplers": [
        {
          "input": 16,
          "interpolation": "LINEAR",
          "output": 17
        }
      ]
    }
  ],
  "asset": {
    "extras": {
      "author": "Joel From (https://sketchfab.com/joelfromsweden)",
      "license": "CC-BY-4.0 (http://creativecommons.org/licenses/by/4.0/)",
      "source": "https://sketchfab.com/3d-models/solarpanel-0f5a6f5205a94b66a73b6fbef923f4a3",
      "title": "SolarPanel"
    },
    "generator": "Sketchfab-12.67.0",
    "version": "2.0"
  },
  "bufferViews": [
    {
      "buffer": 0,
      "byteLength": 57744,
      "name": "floatBufferViews",
      "target": 34963
    },
    {
      "buffer": 0,
      "byteLength": 36472,
      "byteOffset": 57744,
      "byteStride": 8,
      "name": "floatBufferViews",
      "target": 34962
    },
    {
      "buffer": 0,
      "byteLength": 109416,
      "byteOffset": 94216,
      "byteStride": 12,
      "name": "floatBufferViews",
      "target": 34962
    },
    {
      "buffer": 0,
      "byteLength": 2404,
      "byteOffset": 203632,
      "name": "floatBufferViews"
    },
    {
      "buffer": 0,
      "byteLength": 9616,
      "byteOffset": 206036,
      "byteStride": 16,
      "name": "floatBufferViews"
    }
  ],
  "buffers": [
    {
      "byteLength": 215652,
      "uri": "scene.bin"
    }
  ],
  "images": [
    {
      "uri": "textures/Material_3_baseColor.jpeg"
    }
  ],
  "materials": [
    {
      "doubleSided": true,
      "name": "pelare__0",
      "pbrMetallicRoughness": {
        "baseColorFactor": [
          0.22148718737531137,
          0.20085428208323847,
          0.20085428208323847,
          1.0
        ],
        "roughnessFactor": 0.3453374289296156
      }
    },
    {
      "doubleSided": true,
      "name": "metal",
      "pbrMetallicRoughness": {
        "baseColorFactor": [
          0.25186786718752624,
          0.23288638921505972,
          0.23288638921505972,
          1.0
        ],
        "metallicFactor": 0.7011656497885114,
        "roughnessFactor": 0.03
      }
    },
    {
      "doubleSided": true,
      "name": "Material_3",
      "pbrMetallicRoughness": {
        "baseColorTexture": {
          "index": 0
        },
        "metallicFactor": 0.3330674902793089,
        "roughnessFactor": 0.0
      }
    }
  ],
  "meshes": [
    {
      "name": "solpanel_metal_0",
      "primitives": [
        {
          "attributes": {
            "NORMAL": 1,
            "POSITION": 0,
            "TEXCOORD_0": 2
          },
          "indices": 3,
          "material": 1,
          "mode": 4
        }
      ]
    },
    {
      "name": "solpanel_Material #3_0",
      "primitives": [
        {
          "attributes": {
            "NORMAL": 5,
            "POSITION": 4,
            "TEXCOORD_0": 6
          },
          "indices": 7,
          "material": 2,
          "mode": 4
        }
      ]
    },
    {
      "name": "pelare__0",
      "primitives": [
        {
          "attributes": {
            "NORMAL": 9,
            "POSITION": 8,
            "TEXCOORD_0": 10
          },
          "indices": 11,
          "material": 0,
          "mode": 4
        }
      ]
    },
    {
      "name": "betong__0",
      "primitives": [
        {
          "attributes": {
            "NORMAL": 13,
            "POSITION": 12,
            "TEXCOORD_0": 14
          },
          "indices": 15,
          "material": 0,
          "mode": 4
        }
      ]
    }
  ],
  "nodes": [
    {
      "children": [
        1
      ],
      "matrix": [
        0.00046888060751371086,
        0.0,
        0.0,
        0.0,
        0.0,
        1.0411240925239059e-19,
        -0.00046888060751371086,
        0.0,
        0.0,
        0.00046888060751371086,
        1.0411240925239059e-19,
        0.0,
        0.0,
        0.0,
        0.0,
        1.0
      ],
      "name": "Sketchfab_model"
    },
    {
      "children": [
        2
      ],
      "matrix": [
        1.0,
        0.0,
        0.0,
        0.0,
        0.0,
        0.0,
        1.0,
        0.0,
        0.0,
        -1.0,
        0.0,
        0.0,
        0.0,
        0.0,
        0.0,
        1.0
      ],
      "name": "8bb55534cb68440aa0cf0b6257f4eb16.fbx"
    },
    {
      "children": [
        3
      ],
      "name": "Object_2"
    },
    {
      "children": [
        4,
        8,
        10
      ],
      "name": "RootNode"
    },
    {
      "children": [
        5
      ],
      "name": "solpanel",
      "rotation": [
        0.9238795042037964,
        0.0,
        0.0,
        -0.3826834559440613
      ],
      "translation": [
        0.0,
        -290.32080078125,
        -1.269032418349525e-05
      ]
    },
    {
      "children": [
        6,
        7
      ],
      "matrix": [
        1.0,
        0.0,
        -0.0,
        0.0,
        0.0,
        1.0,
        0.0,
        0.0,
        0.0,
        0.0,
        1.0,
        0.0,
        0.0,
        -1.221795810124604e-05,
        279.5143127441406,
        1.0
      ],
      "name": "Object_5"
    },
    {
      "mesh": 0,
      "name": "solpanel_metal_0"
    },
    {
      "mesh": 1,
      "name": "solpanel_Material #3_0"
    },
    {
      "children": [
        9
      ],
      "name": "pelare",
      "rotation": [
        -0.7071068286895752,
        -0.0,
        0.0,
        0.7071068286895752
      ],
      "translation": [
        -30.663982391357422,
        -309.59942626953125,
        -1.3707990646362305
      ]
    },
    {
      "mesh": 2,
      "name": "pelare__0"
    },
    {
      "children": [
        11
      ],
      "name": "betong",
      "rotation": [
        -0.7071068286895752,
        -0.0,
        0.0,
        0.7071068286895752
      ],
      "translation": [
        -20.0157470703125,
        -3343.1806640625,
        -8.334769248962402
      ]
    },
    {
      "mesh": 3,
      "name": "betong__0"
    }
  ],
  "samplers": [
    {
      "magFilter": 9729,
      "minFilter": 9987,
      "wrapS": 10497,
      "wrapT": 10497
    }
  ],
  "scene": 0,
  "scenes": [
    {
      "name": "Sketchfab_Scene",
      "nodes": [
        0
      ]
    }
  ],
  "textures": [
    {
      "sampler": 0,
      "source": 0
    }
  ]
}
