<?xml version="1.0" standalone="no"?>
<!DOCTYPE svg PUBLIC "-//W3C//DTD SVG 20010904//EN"
 "http://www.w3.org/TR/2001/REC-SVG-20010904/DTD/svg10.dtd">
<svg version="1.0" xmlns="http://www.w3.org/2000/svg"
 width="2000.000000pt" height="1500.000000pt" viewBox="0 0 2000.000000 1500.000000"
 preserveAspectRatio="xMidYMid meet">

<g transform="translate(0.000000,1500.000000) scale(0.100000,-0.100000)"
fill="#000000" stroke="none">
<path d="M0 7500 l0 -7500 10000 0 10000 0 0 7500 0 7500 -10000 0 -10000 0 0
-7500z m4700 2651 c171 -38 337 -119 479 -235 224 -183 379 -484 398 -773 l6
-93 -1123 0 -1123 0 6 93 c14 205 101 430 236 604 178 230 451 385 746 423 96
12 271 3 375 -19z m11370 4 c291 -32 592 -96 845 -180 136 -45 341 -127 382
-153 9 -6 7 -29 -8 -97 -33 -159 -149 -704 -195 -920 -24 -115 -46 -220 -49
-232 l-5 -23 -255 0 -255 0 0 23 c-1 12 -18 206 -39 430 l-38 408 -49 51
c-232 239 -780 334 -1124 194 -296 -121 -442 -337 -427 -631 9 -171 61 -281
197 -409 157 -147 361 -261 1005 -562 647 -302 967 -540 1202 -894 142 -212
214 -441 232 -735 30 -497 -105 -847 -434 -1123 -257 -216 -566 -350 -985
-426 -217 -39 -349 -50 -605 -50 -563 1 -1087 116 -1527 335 -168 84 -201 106
-195 132 2 12 30 132 61 267 74 319 119 544 160 798 l33 207 256 3 256 2 6
-32 c3 -18 28 -247 56 -507 27 -261 52 -479 55 -483 12 -19 201 -122 293 -159
206 -82 409 -114 626 -98 273 20 554 146 673 301 86 114 129 243 139 418 10
181 -24 347 -98 478 -46 81 -224 255 -339 331 -148 99 -383 211 -855 411 -398
168 -692 347 -877 534 -205 207 -311 416 -354 701 -20 131 -14 464 11 575 38
169 105 326 192 449 127 178 336 352 550 459 220 111 541 195 843 221 135 12
467 5 640 -14z m-7545 -104 c450 -8 893 -2 1410 17 116 5 211 8 213 7 3 -3 91
-309 89 -311 -1 -1 -156 -47 -345 -102 -188 -55 -346 -102 -349 -106 -9 -8
-10 -4173 -1 -4181 3 -4 156 -42 339 -86 183 -43 338 -80 345 -83 9 -3 1 -44
-30 -151 -24 -80 -45 -147 -48 -150 -2 -2 -125 1 -273 6 -272 11 -1826 5
-2011 -7 l-92 -6 -47 143 c-26 79 -50 149 -52 154 -2 7 132 43 332 90 185 44
340 82 345 85 23 14 54 1565 46 2290 -9 803 -36 1894 -47 1901 -6 3 -160 50
-344 104 -184 54 -335 99 -335 101 0 5 92 299 95 304 2 3 65 2 142 -2 76 -4
354 -12 618 -17z m2921 7 c376 -9 588 -9 942 1 251 6 465 13 476 14 16 2 26
-22 67 -153 26 -85 47 -155 46 -156 -1 -1 -155 -38 -342 -83 -271 -65 -344
-87 -361 -104 -554 -581 -1593 -1730 -1602 -1771 -5 -23 601 -964 876 -1361
208 -300 685 -959 776 -1072 1 -2 180 -39 397 -84 217 -45 395 -83 396 -84 2
-1 -23 -70 -54 -155 l-57 -153 -75 9 c-42 4 -454 8 -916 9 l-839 0 -147 251
c-395 675 -814 1351 -1166 1882 -139 211 -253 387 -253 392 0 4 66 68 146 141
529 479 904 881 1218 1303 238 320 494 705 476 716 -6 4 -148 42 -315 85 -184
48 -302 82 -300 89 2 6 22 72 45 146 23 74 43 141 46 149 2 7 11 10 20 7 8 -3
233 -11 500 -18z m-5866 -1148 l0 -100 -1120 0 -1120 0 0 100 0 100 1120 0
1120 0 0 -100z m-2335 -1620 l0 -1465 -145 -3 -145 -2 -48 162 -48 163 1 208
0 207 55 0 55 0 0 475 0 475 -95 0 -95 0 0 618 c0 340 3 622 7 626 4 3 108 5
232 4 l226 -3 0 -1465z m2335 195 l0 -1275 -1120 0 -1120 0 0 1275 0 1275
1120 0 1120 0 0 -1275z m558 648 l2 -623 -95 0 -95 0 0 -475 0 -475 55 0 55 0
0 -207 1 -208 -48 -163 -48 -162 -145 2 -145 3 -3 1455 c-1 800 0 1461 3 1468
3 10 55 12 232 10 l228 -3 3 -622z m-564 -1971 c-5 -5 -113 -79 -241 -165
l-232 -157 -718 0 -718 0 -165 165 -165 165 1125 0 c618 0 1120 -4 1114 -8z
m-2244 -872 l0 -470 -410 0 c-321 0 -410 3 -410 13 -1 6 41 218 92 470 l93
457 317 0 318 0 0 -470z m2988 13 c51 -252 93 -464 92 -470 0 -10 -89 -13
-410 -13 l-410 0 0 470 0 470 318 0 317 0 93 -457z"/>
<path d="M4345 9881 c-208 -96 -139 -411 90 -411 119 0 214 94 215 213 1 157
-163 264 -305 198z"/>
<path d="M4963 9443 c-34 -7 -81 -59 -89 -98 -9 -48 2 -82 35 -116 99 -98 265
15 204 138 -30 60 -88 89 -150 76z"/>
<path d="M3893 8542 l-83 -15 0 -58 0 -58 58 -11 c31 -7 73 -15 92 -19 24 -5
80 1 175 20 184 36 185 36 185 -1 l0 -30 283 0 c259 0 285 2 326 20 30 14 65
20 112 20 l69 0 0 60 0 60 -74 0 c-43 0 -89 6 -109 15 -30 12 -91 15 -322 15
l-285 0 0 -30 c0 -16 -2 -30 -3 -30 -2 0 -73 13 -158 30 -174 34 -157 33 -266
12z"/>
<path d="M3980 8220 c-27 -11 -70 -19 -107 -19 l-63 -1 0 -55 0 -55 65 0 c41
0 83 -7 115 -20 46 -18 74 -20 330 -20 l280 0 0 30 c0 38 3 38 182 1 130 -27
141 -27 210 -15 128 24 118 17 118 82 l0 59 -97 17 -98 17 -149 -31 c-82 -16
-153 -30 -158 -30 -4 0 -8 14 -8 30 l0 30 -287 -1 c-259 0 -293 -2 -333 -19z"/>
<path d="M4366 7856 c-51 -19 -94 -62 -106 -105 -13 -48 -13 -212 1 -248 14
-38 57 -83 96 -99 41 -18 164 -18 206 0 44 18 95 78 103 121 3 19 5 80 2 134
-3 89 -6 102 -31 135 -16 20 -42 43 -60 53 -43 22 -161 27 -211 9z"/>
<path d="M4355 7316 c-37 -17 -80 -62 -94 -99 -14 -36 -14 -200 -1 -249 22
-77 113 -124 225 -115 74 5 115 25 152 73 25 33 28 46 31 135 3 54 1 115 -2
134 -8 43 -59 103 -103 121 -41 18 -169 17 -208 0z"/>
<path d="M4380 6648 c-184 -93 -57 -377 135 -303 112 42 145 174 68 266 -52
61 -128 75 -203 37z"/>
</g>
</svg>
