<svg xmlns="http://www.w3.org/2000/svg" version="1.1" xmlns:xlink="http://www.w3.org/1999/xlink" xmlns:svgjs="http://svgjs.dev/svgjs" width="2000" height="1500" viewBox="0 0 2000 1500"><rect width="2000" height="1500" fill="#61777f"></rect><g transform="matrix(0.75,0,0,0.75,249.13382378064512,475.6466075892858)"><svg viewBox="0 0 155 56" data-background-color="#61777f" preserveAspectRatio="xMidYMid meet" height="722" width="2000" xmlns="http://www.w3.org/2000/svg" xmlns:xlink="http://www.w3.org/1999/xlink"><g id="tight-bounds" transform="matrix(1,0,0,1,0.08950487600000656,0.37264999999999304)"><svg viewBox="0 0 154.820990248 55.25469999999999" height="55.25469999999999" width="154.820990248"><g><svg viewBox="0 0 154.820990248 55.25469999999999" height="55.25469999999999" width="154.820990248"><g><svg viewBox="0 0 154.820990248 55.25469999999999" height="55.25469999999999" width="154.820990248"><g id="textblocktransform"><svg viewBox="0 0 154.820990248 55.25469999999999" height="55.25469999999999" width="154.820990248" id="textblock"><g><svg viewBox="0 0 154.820990248 55.25469999999999" height="55.25469999999999" width="154.820990248"><g><svg><g></g><g></g></svg></g><g><svg><g></g><g><svg></svg></g></svg></g><g id="text-0"><svg viewBox="0 0 154.820990248 55.25469999999999" height="55.25469999999999" width="154.820990248"><g><svg xmlns="http://www.w3.org/2000/svg" xmlns:xlink="http://www.w3.org/1999/xlink" version="1.1" x="0" y="0" viewBox="13.508 0 72.98400000000001 100" enable-background="new 0 0 100 100" xml:space="preserve" height="55.25469999999999" width="40.327090248" class="icon-dxe-0" data-fill-palette-color="accent" id="dxe-0"><polygon points="71.159,100 86.492,100 82.95,82.61 71.159,82.61 " fill="#ffffff" data-fill-palette-color="accent"></polygon><polygon points="81.295,26.577 81.295,49.78 77.823,49.78 77.823,67.715 79.879,67.715 79.879,75.33 78.06,81.395 72.798,81.395   72.798,69.604 72.798,67.715 72.798,49.78 72.798,48.692 72.798,26.577 " fill="#ffffff" data-fill-palette-color="accent"></polygon><polygon points="28.84,100 13.508,100 17.05,82.61 28.84,82.61 " fill="#ffffff" data-fill-palette-color="accent"></polygon><polygon points="18.705,26.577 18.705,49.78 22.177,49.78 22.177,67.715 20.122,67.715 20.122,75.33 21.94,81.395 27.203,81.395   27.203,69.604 27.203,67.715 27.203,49.78 27.203,48.692 27.203,26.577 " fill="#ffffff" data-fill-palette-color="accent"></polygon><rect x="29.091" y="21.886" width="41.817" height="3.452" fill="#ffffff" data-fill-palette-color="accent"></rect><path d="M50 0C38.453 0 29.091 9.361 29.091 20.909H70.908C70.908 9.361 61.548 0 50 0M49.521 13.272A4.132 4.132 0 1 1 49.521 5.008 4.132 4.132 0 0 1 49.521 13.272M60.146 18.466A2.48 2.48 0 1 1 60.146 13.508 2.48 2.48 0 0 1 60.146 18.466" fill="#ffffff" data-fill-palette-color="accent"></path><polygon points="61.88,74.906 35.195,74.906 29.091,74.906 35.195,81.011 61.88,81.011 70.908,74.906 " fill="#ffffff" data-fill-palette-color="accent"></polygon><path d="M29.091 26.577V74.091H70.908V26.577zM50 71.919A3.238 3.238 0 1 1 50 65.444 3.238 3.238 0 0 1 50 71.919M53.958 59.114C53.958 60.812 52.407 62.19 50.494 62.19H49.505C47.592 62.19 46.042 60.812 46.042 59.114V56.152C46.042 54.453 47.592 53.075 49.505 53.075H50.494C52.407 53.075 53.958 54.453 53.958 56.152zM53.958 49.083C53.958 50.781 52.407 52.159 50.494 52.159H49.505C47.592 52.159 46.042 50.781 46.042 49.083V46.121C46.042 44.422 47.592 43.045 49.505 43.045H50.494C52.407 43.045 53.958 44.422 53.958 46.121zM62.185 39.048L58.64 39.724 52.763 38.578V39.724H41.953L40.332 39.048H37.815V36.752H40.332L41.953 36.076H52.763V37.222L58.64 36.076 62.185 36.752zM62.185 33.052H59.667L58.047 33.727H47.237V32.582L41.36 33.727 37.815 33.052V30.755L41.36 30.079 47.237 31.225V30.08H58.047L59.667 30.756H62.185z" fill="#ffffff" data-fill-palette-color="accent"></path></svg></g><g transform="matrix(1,0,0,1,53.372390247999995,0)"><svg width="101.4486" viewBox="1 -33.65 62.7 34.15" height="55.25469999999999" data-palette-color="#ffffff"><path d="M1.65 0L1.65 0 1-1.9 5.4-2.95Q5.5-5.75 5.55-7.83 5.6-9.9 5.63-11.73 5.65-13.55 5.65-15.6L5.65-15.6Q5.65-18.4 5.58-22.03 5.5-25.65 5.4-29.75L5.4-29.75 1-31.05 1.6-33Q3.2-32.9 5.15-32.85 7.1-32.8 9.4-32.8L9.4-32.8Q11.55-32.8 13.33-32.88 15.1-32.95 16.8-33L16.8-33 17.35-31.05 12.9-29.75Q12.9-26.45 12.88-24.13 12.85-21.8 12.85-19.85 12.85-17.9 12.85-15.6L12.85-15.6Q12.85-13.15 12.85-9.8 12.85-6.45 12.9-2.95L12.9-2.95 17.35-1.9 16.8 0Q14.1-0.15 9.2-0.15L9.2-0.15Q6.9-0.15 5.05-0.1 3.2-0.05 1.65 0ZM35.75-1.9L35.05 0Q32.05-0.15 29.4-0.15L29.4-0.15Q27.7-0.15 25.98-0.1 24.25-0.05 23.4-0.05L23.4-0.05Q22.05-2.4 20.9-4.3 19.75-6.2 18.65-8 17.55-9.8 16.28-11.78 15-13.75 13.35-16.2L13.35-16.2Q14.3-16.9 15.5-17.6 16.7-18.3 17.75-18.93 18.8-19.55 19.15-19.95L19.15-19.95Q21.2-16.7 23-13.9 24.8-11.1 26.68-8.45 28.55-5.8 30.7-2.95L30.7-2.95 35.75-1.9ZM17.65-15.65L17.65-15.65 13.35-16.2Q16.45-18.95 18.5-21.13 20.55-23.3 22.13-25.43 23.7-27.55 25.25-30L25.25-30 21.2-31.05 21.8-33Q23.55-32.9 25.05-32.88 26.55-32.85 28.25-32.85L28.25-32.85Q31.65-32.85 34.25-33L34.25-33 34.85-31.05 30.5-30Q27-26.3 23.88-22.85 20.75-19.4 17.65-15.65ZM52-33.65L52-33.65Q54.75-33.65 57.6-33.02 60.45-32.4 62.5-31.35L62.5-31.35Q62-28.9 61.6-27.08 61.2-25.25 60.8-23.3L60.8-23.3 57.6-23.3 57.1-28.75Q56.4-29.75 54.92-30.28 53.45-30.8 51.85-30.8L51.85-30.8Q49.9-30.8 48.35-29.7 46.8-28.6 46.8-26.5L46.8-26.5Q46.8-24.85 48.02-23.73 49.25-22.6 51.17-21.68 53.1-20.75 55.25-19.75 57.4-18.75 59.32-17.38 61.25-16 62.47-13.95 63.7-11.9 63.7-8.85L63.7-8.85Q63.7-5.55 61.85-3.48 60-1.4 57.07-0.45 54.15 0.5 50.85 0.5L50.85 0.5Q47.8 0.5 44.85-0.25 41.9-1 39.75-2.35L39.75-2.35Q40.3-4.6 40.67-6.38 41.05-8.15 41.4-10.6L41.4-10.6 44.65-10.6 45.35-4.1Q46.5-3.3 47.82-2.85 49.15-2.4 50.6-2.4L50.6-2.4Q52.95-2.4 54.72-3.58 56.5-4.75 56.5-7.45L56.5-7.45Q56.5-9.55 55.32-10.85 54.15-12.15 52.3-13.05 50.45-13.95 48.37-14.8 46.3-15.65 44.45-16.8 42.6-17.95 41.42-19.75 40.25-21.55 40.25-24.4L40.25-24.4Q40.25-27.5 41.87-29.55 43.5-31.6 46.17-32.63 48.85-33.65 52-33.65Z" opacity="1" transform="matrix(1,0,0,1,0,0)" fill="#ffffff" class="wordmark-text-0" data-fill-palette-color="primary"></path></svg></g></svg></g></svg></g></svg></g></svg></g></svg></g><defs></defs></svg><rect width="154.820990248" height="55.25469999999999" fill="none" stroke="none" visibility="hidden"></rect></g></svg></g></svg>